<svg id="Layer_1" enable-background="new 0 0 1550 1550" height="512" viewBox="0 0 1550 1550" width="512" xmlns="http://www.w3.org/2000/svg"><g><g><g><g><path d="m389.3 258.5h-358.3c-13.3 0-24-10.7-24-24s10.7-24 24-24h358.3c13.3 0 24 10.7 24 24s-10.8 24-24 24z"/></g><g><path d="m1519 258.5h-887c-13.3 0-24-10.7-24-24s10.7-24 24-24h887c13.3 0 24 10.7 24 24s-10.7 24-24 24z"/></g><g><path d="m510.7 379.9c-80.2 0-145.4-65.2-145.4-145.4s65.2-145.4 145.4-145.4 145.4 65.2 145.4 145.4-65.3 145.4-145.4 145.4zm0-242.8c-53.7 0-97.4 43.7-97.4 97.4s43.7 97.4 97.4 97.4 97.4-43.7 97.4-97.4-43.7-97.4-97.4-97.4z"/></g></g><g><g><path d="m349.6 1339.5h-318.6c-13.3 0-24-10.7-24-24s10.7-24 24-24h318.6c13.3 0 24 10.7 24 24s-10.7 24-24 24z"/></g><g><path d="m1519 1339.5h-926.7c-13.3 0-24-10.7-24-24s10.7-24 24-24h926.7c13.3 0 24 10.7 24 24s-10.7 24-24 24z"/></g><g><path d="m470.9 1460.9c-80.2 0-145.4-65.2-145.4-145.4s65.2-145.4 145.4-145.4 145.4 65.2 145.4 145.4-65.3 145.4-145.4 145.4zm0-242.8c-53.7 0-97.4 43.7-97.4 97.4s43.7 97.4 97.4 97.4 97.4-43.7 97.4-97.4-43.7-97.4-97.4-97.4z"/></g></g></g><g><g><path d="m1519 799h-341.4c-13.3 0-24-10.7-24-24s10.7-24 24-24h341.4c13.3 0 24 10.7 24 24 0 13.2-10.7 24-24 24z"/></g><g><path d="m934.9 799h-903.9c-13.3 0-24-10.7-24-24s10.7-24 24-24h903.9c13.3 0 24 10.7 24 24 0 13.2-10.8 24-24 24z"/></g><g><path d="m1056.3 920.4c-80.2 0-145.4-65.2-145.4-145.4s65.2-145.4 145.4-145.4 145.4 65.2 145.4 145.4-65.3 145.4-145.4 145.4zm0-242.8c-53.7 0-97.4 43.7-97.4 97.4s43.7 97.4 97.4 97.4 97.4-43.7 97.4-97.4-43.7-97.4-97.4-97.4z"/></g></g></g></svg>