<svg id="Layer_1" enable-background="new 0 0 512 512" height="512" viewBox="0 0 512 512" width="512" xmlns="http://www.w3.org/2000/svg"><g clip-rule="evenodd" fill-rule="evenodd"><path d="m486.593 398.13c6.125 5.471 9.309 12.412 9.474 20.622.165 8.202-2.752 15.286-8.651 20.986l-39.95 38.61c-32.868 31.765-88.246 14.405-124.413-2.218-28.73-13.205-56.191-30.617-81.61-49.352-29.686-21.88-57.659-46.435-83.727-72.504-26.067-26.068-50.621-54.041-72.5-83.727-18.733-25.417-36.145-52.875-49.352-81.601-16.626-36.162-33.982-91.552-2.213-124.413l38.615-39.941c5.705-5.9 12.779-8.804 20.981-8.66 8.214.144 15.157 3.349 20.627 9.474l69.786 78.131c9.247 10.352 9.678 25.769 1.026 36.622-8.446 10.596-16.9 21.186-25.372 31.761-5.817 7.26-9.304 16.023-9.797 25.331-.493 9.313 2.058 18.411 7.084 26.245 16.91 26.355 35.861 51.689 58.038 73.868 22.177 22.181 47.515 41.132 73.873 58.038 7.824 5.018 16.91 7.567 26.21 7.082 9.32-.486 18.096-3.972 25.366-9.795 10.574-8.47 21.155-16.931 31.751-25.373 10.855-8.648 26.27-8.226 36.622 1.022zm-427.008-308.526c3.039-3.147 2.958-8.164-.187-11.207-3.149-3.047-8.166-2.965-11.211.187-2.55 2.639-4.739 5.614-6.466 8.854-9.316 17.475-5.471 41.205-.231 59.364 4.5 15.592 11.068 30.966 18.423 45.423 1.356 2.665 4.087 4.339 7.069 4.339 1.252 0 2.475-.292 3.591-.86 3.904-1.988 5.456-6.76 3.469-10.665-10.792-21.213-30.513-67.279-18.328-90.139 1.044-1.959 2.329-3.699 3.871-5.296z" fill="#cce4ff"/><path d="m74.106 185.005c2.005 3.939.439 8.751-3.5 10.761-1.165.59-2.401.868-3.623.868-2.911 0-5.722-1.599-7.133-4.378-13.512-26.551-33.841-75.494-18.192-104.853 1.717-3.218 3.897-6.199 6.478-8.87 3.071-3.18 8.133-3.27 11.313-.188 3.175 3.066 3.26 8.129.189 11.309-1.566 1.623-2.826 3.34-3.859 5.279-13.055 24.49 10.727 75.131 18.327 90.072zm413.26 254.681c5.888-5.69 8.799-12.729 8.629-20.933-.16-8.19-3.34-15.106-9.45-20.57l-78.131-69.79c-10.332-9.218-25.688-9.657-36.53-1.019-8.398 6.69-18.989 15.153-31.75 25.372-15.097 12.096-35.379 13.158-51.66 2.717-29.741-19.079-53.91-38.068-73.885-58.048-19.98-19.98-38.964-44.149-58.048-73.88-10.445-16.291-9.379-36.563 2.718-51.66 10.224-12.762 18.678-23.362 25.372-31.76 8.634-10.832 8.204-26.193-1.024-36.53l-69.786-78.131c-5.459-6.11-12.379-9.289-20.574-9.45-8.2-.128-15.234 2.741-20.928 8.638l-38.616 39.942c-30.765 31.831-15.772 85.18 2.227 124.333 23.853 51.877 67.12 110.59 121.837 165.307 54.717 54.722 113.425 97.993 165.316 121.842 39.153 17.998 92.502 33.001 124.333 2.232zm9.836-53.429-78.126-69.79c-16.173-14.441-40.21-15.121-57.161-1.613-8.412 6.704-19.013 15.172-31.793 25.41-9.648 7.723-22.598 8.412-33.005 1.732-28.764-18.451-52.056-36.738-71.215-55.887-19.159-19.164-37.44-42.46-55.892-71.215-6.676-10.407-5.996-23.367 1.731-33.015 10.238-12.771 18.701-23.381 25.405-31.793 13.507-16.951 12.832-40.988-1.609-57.151l-69.786-78.127c-8.421-9.431-19.55-14.55-32.194-14.8-12.625-.269-23.962 4.43-32.746 13.507l-38.61 39.95c-29.326 30.34-29.609 79.49-.807 142.133 24.622 53.561 69.035 113.92 125.059 169.94 56.024 56.029 116.378 100.437 169.939 125.069 31.043 14.271 58.76 21.4 82.524 21.4 24.207 0 44.305-7.398 59.619-22.197l39.95-38.61c9.086-8.794 13.757-20.112 13.507-32.751-.249-12.647-5.359-23.776-14.79-32.192z" fill="#007aff"/></g></svg>